<mxfile host="65bd71144e" pages="5">
    <diagram id="45507ee3-61b9-811b-3543-1c1f494e3b03" name="MVC">
        <mxGraphModel dx="958" dy="784" grid="1" gridSize="10" guides="1" tooltips="1" connect="1" arrows="1" fold="1" page="1" pageScale="1" pageWidth="850" pageHeight="1100" math="0" shadow="0">
            <root>
                <mxCell id="0"/>
                <mxCell id="1" parent="0"/>
                <mxCell id="55c1ee392287d2f2-1" value="Model&lt;br&gt;(Data structure)" style="rounded=0;whiteSpace=wrap;html=1;" parent="1" vertex="1">
                    <mxGeometry x="420" y="260" width="120" height="60" as="geometry"/>
                </mxCell>
                <mxCell id="55c1ee392287d2f2-14" style="edgeStyle=orthogonalEdgeStyle;rounded=0;html=1;jettySize=auto;orthogonalLoop=1;" parent="1" source="55c1ee392287d2f2-2" target="55c1ee392287d2f2-12" edge="1">
                    <mxGeometry relative="1" as="geometry"/>
                </mxCell>
                <mxCell id="55c1ee392287d2f2-20" value="3. Display" style="text;html=1;resizable=0;points=[];align=center;verticalAlign=middle;labelBackgroundColor=#ffffff;" parent="55c1ee392287d2f2-14" vertex="1" connectable="0">
                    <mxGeometry x="-0.1505" relative="1" as="geometry">
                        <mxPoint y="-4.5" as="offset"/>
                    </mxGeometry>
                </mxCell>
                <mxCell id="55c1ee392287d2f2-15" style="edgeStyle=orthogonalEdgeStyle;rounded=0;html=1;entryX=0.5;entryY=1;jettySize=auto;orthogonalLoop=1;" parent="1" source="55c1ee392287d2f2-2" target="55c1ee392287d2f2-1" edge="1">
                    <mxGeometry relative="1" as="geometry"/>
                </mxCell>
                <mxCell id="55c1ee392287d2f2-19" value="2. Manipulate" style="text;html=1;resizable=0;points=[];align=center;verticalAlign=middle;labelBackgroundColor=#ffffff;" parent="55c1ee392287d2f2-15" vertex="1" connectable="0">
                    <mxGeometry x="0.0769" y="-2" relative="1" as="geometry">
                        <mxPoint x="-20" y="-2" as="offset"/>
                    </mxGeometry>
                </mxCell>
                <mxCell id="55c1ee392287d2f2-2" value="Controller&lt;br&gt;(Resource)&lt;br&gt;" style="rounded=0;whiteSpace=wrap;html=1;" parent="1" vertex="1">
                    <mxGeometry x="260" y="320" width="120" height="60" as="geometry"/>
                </mxCell>
                <mxCell id="55c1ee392287d2f2-8" style="edgeStyle=orthogonalEdgeStyle;rounded=0;html=1;jettySize=auto;orthogonalLoop=1;" parent="1" source="55c1ee392287d2f2-4" target="55c1ee392287d2f2-2" edge="1">
                    <mxGeometry relative="1" as="geometry"/>
                </mxCell>
                <mxCell id="55c1ee392287d2f2-10" value="1. Request" style="text;html=1;resizable=0;points=[];align=center;verticalAlign=middle;labelBackgroundColor=#ffffff;" parent="55c1ee392287d2f2-8" vertex="1" connectable="0">
                    <mxGeometry x="-0.1333" y="-1" relative="1" as="geometry">
                        <mxPoint x="15" y="-1" as="offset"/>
                    </mxGeometry>
                </mxCell>
                <mxCell id="55c1ee392287d2f2-22" style="rounded=0;html=1;exitX=0.5;exitY=0;exitPerimeter=0;entryX=0;entryY=0.983;entryPerimeter=0;jettySize=auto;orthogonalLoop=1;dashed=1;" parent="1" source="55c1ee392287d2f2-4" target="55c1ee392287d2f2-12" edge="1">
                    <mxGeometry relative="1" as="geometry"/>
                </mxCell>
                <mxCell id="55c1ee392287d2f2-23" value="6. Sees" style="text;html=1;resizable=0;points=[];align=center;verticalAlign=middle;labelBackgroundColor=#ffffff;" parent="55c1ee392287d2f2-22" vertex="1" connectable="0">
                    <mxGeometry x="-0.2646" y="-1" relative="1" as="geometry">
                        <mxPoint x="18.5" y="-12" as="offset"/>
                    </mxGeometry>
                </mxCell>
                <mxCell id="55c1ee392287d2f2-4" value="User" style="shape=umlActor;verticalLabelPosition=bottom;labelBackgroundColor=#ffffff;verticalAlign=top;html=1;" parent="1" vertex="1">
                    <mxGeometry x="80" y="320" width="30" height="60" as="geometry"/>
                </mxCell>
                <mxCell id="55c1ee392287d2f2-13" style="edgeStyle=orthogonalEdgeStyle;rounded=0;html=1;entryX=0.5;entryY=0;entryPerimeter=0;jettySize=auto;orthogonalLoop=1;" parent="1" source="55c1ee392287d2f2-12" target="55c1ee392287d2f2-4" edge="1">
                    <mxGeometry relative="1" as="geometry"/>
                </mxCell>
                <mxCell id="55c1ee392287d2f2-18" value="5. Response" style="text;html=1;resizable=0;points=[];align=center;verticalAlign=middle;labelBackgroundColor=#ffffff;" parent="55c1ee392287d2f2-13" vertex="1" connectable="0">
                    <mxGeometry x="0.0824" y="2" relative="1" as="geometry">
                        <mxPoint x="58" y="-2" as="offset"/>
                    </mxGeometry>
                </mxCell>
                <mxCell id="55c1ee392287d2f2-17" style="edgeStyle=orthogonalEdgeStyle;rounded=0;html=1;entryX=0.5;entryY=0;jettySize=auto;orthogonalLoop=1;" parent="1" source="55c1ee392287d2f2-12" target="55c1ee392287d2f2-1" edge="1">
                    <mxGeometry relative="1" as="geometry"/>
                </mxCell>
                <mxCell id="55c1ee392287d2f2-21" value="4. Uses" style="text;html=1;resizable=0;points=[];align=center;verticalAlign=middle;labelBackgroundColor=#ffffff;" parent="55c1ee392287d2f2-17" vertex="1" connectable="0">
                    <mxGeometry x="-0.4615" y="-1" relative="1" as="geometry">
                        <mxPoint x="15" y="-1" as="offset"/>
                    </mxGeometry>
                </mxCell>
                <mxCell id="55c1ee392287d2f2-12" value="View&lt;br&gt;(User interface)&lt;br&gt;" style="rounded=0;whiteSpace=wrap;html=1;" parent="1" vertex="1">
                    <mxGeometry x="260" y="200" width="120" height="60" as="geometry"/>
                </mxCell>
            </root>
        </mxGraphModel>
    </diagram>
    <diagram id="7ed8ea1d-cc0b-b0a7-d203-cf0f7a5fa491" name="ViewModel">
        <mxGraphModel dx="958" dy="784" grid="1" gridSize="10" guides="1" tooltips="1" connect="1" arrows="1" fold="1" page="1" pageScale="1" pageWidth="850" pageHeight="1100" math="0" shadow="0">
            <root>
                <mxCell id="0"/>
                <mxCell id="1" parent="0"/>
                <mxCell id="5344d67a8a685fb7-1" value="ViewModel&lt;br&gt;(Data structure)" style="rounded=0;whiteSpace=wrap;html=1;" parent="1" vertex="1">
                    <mxGeometry x="420" y="260" width="120" height="60" as="geometry"/>
                </mxCell>
                <mxCell id="5344d67a8a685fb7-2" style="edgeStyle=orthogonalEdgeStyle;rounded=0;html=1;jettySize=auto;orthogonalLoop=1;" parent="1" source="5344d67a8a685fb7-6" target="5344d67a8a685fb7-16" edge="1">
                    <mxGeometry relative="1" as="geometry"/>
                </mxCell>
                <mxCell id="5344d67a8a685fb7-3" value="4. Display" style="text;html=1;resizable=0;points=[];align=center;verticalAlign=middle;labelBackgroundColor=#ffffff;" parent="5344d67a8a685fb7-2" vertex="1" connectable="0">
                    <mxGeometry x="-0.1505" relative="1" as="geometry">
                        <mxPoint y="-4.5" as="offset"/>
                    </mxGeometry>
                </mxCell>
                <mxCell id="5344d67a8a685fb7-4" style="edgeStyle=orthogonalEdgeStyle;rounded=0;html=1;entryX=0.5;entryY=1;jettySize=auto;orthogonalLoop=1;" parent="1" source="5344d67a8a685fb7-6" target="5344d67a8a685fb7-1" edge="1">
                    <mxGeometry relative="1" as="geometry"/>
                </mxCell>
                <mxCell id="5344d67a8a685fb7-5" value="3. Creates" style="text;html=1;resizable=0;points=[];align=center;verticalAlign=middle;labelBackgroundColor=#ffffff;" parent="5344d67a8a685fb7-4" vertex="1" connectable="0">
                    <mxGeometry x="0.0769" y="-2" relative="1" as="geometry">
                        <mxPoint x="-10" y="-2" as="offset"/>
                    </mxGeometry>
                </mxCell>
                <mxCell id="5344d67a8a685fb7-19" style="edgeStyle=orthogonalEdgeStyle;rounded=0;html=1;jettySize=auto;orthogonalLoop=1;" parent="1" source="5344d67a8a685fb7-6" target="5344d67a8a685fb7-18" edge="1">
                    <mxGeometry relative="1" as="geometry"/>
                </mxCell>
                <mxCell id="5344d67a8a685fb7-20" value="2. Manipulates" style="text;html=1;resizable=0;points=[];align=center;verticalAlign=middle;labelBackgroundColor=#ffffff;" parent="5344d67a8a685fb7-19" vertex="1" connectable="0">
                    <mxGeometry x="-0.1882" y="29" relative="1" as="geometry">
                        <mxPoint x="-29" y="6" as="offset"/>
                    </mxGeometry>
                </mxCell>
                <mxCell id="5344d67a8a685fb7-6" value="Controller&lt;br&gt;(Resource)&lt;br&gt;" style="rounded=0;whiteSpace=wrap;html=1;" parent="1" vertex="1">
                    <mxGeometry x="260" y="320" width="120" height="60" as="geometry"/>
                </mxCell>
                <mxCell id="5344d67a8a685fb7-7" style="edgeStyle=orthogonalEdgeStyle;rounded=0;html=1;jettySize=auto;orthogonalLoop=1;" parent="1" source="5344d67a8a685fb7-11" target="5344d67a8a685fb7-6" edge="1">
                    <mxGeometry relative="1" as="geometry"/>
                </mxCell>
                <mxCell id="5344d67a8a685fb7-8" value="1. Request" style="text;html=1;resizable=0;points=[];align=center;verticalAlign=middle;labelBackgroundColor=#ffffff;" parent="5344d67a8a685fb7-7" vertex="1" connectable="0">
                    <mxGeometry x="-0.1333" y="-1" relative="1" as="geometry">
                        <mxPoint x="15" y="-1" as="offset"/>
                    </mxGeometry>
                </mxCell>
                <mxCell id="5344d67a8a685fb7-9" style="rounded=0;html=1;exitX=0.5;exitY=0;exitPerimeter=0;entryX=0;entryY=0.983;entryPerimeter=0;jettySize=auto;orthogonalLoop=1;dashed=1;" parent="1" source="5344d67a8a685fb7-11" target="5344d67a8a685fb7-16" edge="1">
                    <mxGeometry relative="1" as="geometry"/>
                </mxCell>
                <mxCell id="5344d67a8a685fb7-10" value="7. Sees" style="text;html=1;resizable=0;points=[];align=center;verticalAlign=middle;labelBackgroundColor=#ffffff;" parent="5344d67a8a685fb7-9" vertex="1" connectable="0">
                    <mxGeometry x="-0.2646" y="-1" relative="1" as="geometry">
                        <mxPoint x="18.5" y="-12" as="offset"/>
                    </mxGeometry>
                </mxCell>
                <mxCell id="5344d67a8a685fb7-11" value="User" style="shape=umlActor;verticalLabelPosition=bottom;labelBackgroundColor=#ffffff;verticalAlign=top;html=1;" parent="1" vertex="1">
                    <mxGeometry x="80" y="320" width="30" height="60" as="geometry"/>
                </mxCell>
                <mxCell id="5344d67a8a685fb7-12" style="edgeStyle=orthogonalEdgeStyle;rounded=0;html=1;entryX=0.5;entryY=0;entryPerimeter=0;jettySize=auto;orthogonalLoop=1;" parent="1" source="5344d67a8a685fb7-16" target="5344d67a8a685fb7-11" edge="1">
                    <mxGeometry relative="1" as="geometry"/>
                </mxCell>
                <mxCell id="5344d67a8a685fb7-13" value="6. Response" style="text;html=1;resizable=0;points=[];align=center;verticalAlign=middle;labelBackgroundColor=#ffffff;" parent="5344d67a8a685fb7-12" vertex="1" connectable="0">
                    <mxGeometry x="0.0824" y="2" relative="1" as="geometry">
                        <mxPoint x="58" y="-2" as="offset"/>
                    </mxGeometry>
                </mxCell>
                <mxCell id="5344d67a8a685fb7-14" style="edgeStyle=orthogonalEdgeStyle;rounded=0;html=1;entryX=0.5;entryY=0;jettySize=auto;orthogonalLoop=1;" parent="1" source="5344d67a8a685fb7-16" target="5344d67a8a685fb7-1" edge="1">
                    <mxGeometry relative="1" as="geometry"/>
                </mxCell>
                <mxCell id="5344d67a8a685fb7-15" value="5. Uses" style="text;html=1;resizable=0;points=[];align=center;verticalAlign=middle;labelBackgroundColor=#ffffff;" parent="5344d67a8a685fb7-14" vertex="1" connectable="0">
                    <mxGeometry x="-0.4615" y="-1" relative="1" as="geometry">
                        <mxPoint x="15" y="-1" as="offset"/>
                    </mxGeometry>
                </mxCell>
                <mxCell id="5344d67a8a685fb7-16" value="View&lt;br&gt;(User interface)&lt;br&gt;" style="rounded=0;whiteSpace=wrap;html=1;" parent="1" vertex="1">
                    <mxGeometry x="260" y="200" width="120" height="60" as="geometry"/>
                </mxCell>
                <mxCell id="5344d67a8a685fb7-18" value="Model&lt;br&gt;(Domain)&lt;br&gt;" style="rounded=0;whiteSpace=wrap;html=1;" parent="1" vertex="1">
                    <mxGeometry x="260" y="440" width="120" height="60" as="geometry"/>
                </mxCell>
            </root>
        </mxGraphModel>
    </diagram>
    <diagram id="3be8dbe0-1b58-a1a6-364f-ae996fb718cf" name="Web APIs">
        <mxGraphModel dx="958" dy="784" grid="1" gridSize="10" guides="1" tooltips="1" connect="1" arrows="1" fold="1" page="1" pageScale="1" pageWidth="850" pageHeight="1100" math="0" shadow="0">
            <root>
                <mxCell id="0"/>
                <mxCell id="1" parent="0"/>
                <mxCell id="2" value="Model&lt;br&gt;(Data structure)" style="rounded=0;whiteSpace=wrap;html=1;" parent="1" vertex="1">
                    <mxGeometry x="420" y="260" width="120" height="60" as="geometry"/>
                </mxCell>
                <mxCell id="3" style="edgeStyle=orthogonalEdgeStyle;rounded=0;html=1;jettySize=auto;orthogonalLoop=1;" parent="1" source="7" target="17" edge="1">
                    <mxGeometry relative="1" as="geometry"/>
                </mxCell>
                <mxCell id="4" value="3. Display" style="text;html=1;resizable=0;points=[];align=center;verticalAlign=middle;labelBackgroundColor=#ffffff;" parent="3" vertex="1" connectable="0">
                    <mxGeometry x="-0.1505" relative="1" as="geometry">
                        <mxPoint y="-4.5" as="offset"/>
                    </mxGeometry>
                </mxCell>
                <mxCell id="5" style="edgeStyle=orthogonalEdgeStyle;rounded=0;html=1;entryX=0.5;entryY=1;jettySize=auto;orthogonalLoop=1;" parent="1" source="7" target="2" edge="1">
                    <mxGeometry relative="1" as="geometry"/>
                </mxCell>
                <mxCell id="6" value="2. Manipulate" style="text;html=1;resizable=0;points=[];align=center;verticalAlign=middle;labelBackgroundColor=#ffffff;" parent="5" vertex="1" connectable="0">
                    <mxGeometry x="0.0769" y="-2" relative="1" as="geometry">
                        <mxPoint x="-20" y="-2" as="offset"/>
                    </mxGeometry>
                </mxCell>
                <mxCell id="7" value="Controller&lt;br&gt;(Resource)&lt;br&gt;" style="rounded=0;whiteSpace=wrap;html=1;" parent="1" vertex="1">
                    <mxGeometry x="260" y="320" width="120" height="60" as="geometry"/>
                </mxCell>
                <mxCell id="8" style="edgeStyle=orthogonalEdgeStyle;rounded=0;html=1;jettySize=auto;orthogonalLoop=1;" parent="1" source="12" target="7" edge="1">
                    <mxGeometry relative="1" as="geometry"/>
                </mxCell>
                <mxCell id="9" value="1. Request" style="text;html=1;resizable=0;points=[];align=center;verticalAlign=middle;labelBackgroundColor=#ffffff;" parent="8" vertex="1" connectable="0">
                    <mxGeometry x="-0.1333" y="-1" relative="1" as="geometry">
                        <mxPoint x="15" y="-1" as="offset"/>
                    </mxGeometry>
                </mxCell>
                <mxCell id="10" style="rounded=0;html=1;exitX=0.5;exitY=0;exitPerimeter=0;entryX=0;entryY=0.983;entryPerimeter=0;jettySize=auto;orthogonalLoop=1;dashed=1;" parent="1" source="12" target="17" edge="1">
                    <mxGeometry relative="1" as="geometry"/>
                </mxCell>
                <mxCell id="11" value="6. Consumes" style="text;html=1;resizable=0;points=[];align=center;verticalAlign=middle;labelBackgroundColor=#ffffff;" parent="10" vertex="1" connectable="0">
                    <mxGeometry x="-0.2646" y="-1" relative="1" as="geometry">
                        <mxPoint x="18.5" y="-12" as="offset"/>
                    </mxGeometry>
                </mxCell>
                <mxCell id="12" value="Client" style="shape=umlActor;verticalLabelPosition=bottom;labelBackgroundColor=#ffffff;verticalAlign=top;html=1;" parent="1" vertex="1">
                    <mxGeometry x="80" y="320" width="30" height="60" as="geometry"/>
                </mxCell>
                <mxCell id="13" style="edgeStyle=orthogonalEdgeStyle;rounded=0;html=1;entryX=0.5;entryY=0;entryPerimeter=0;jettySize=auto;orthogonalLoop=1;" parent="1" source="17" target="12" edge="1">
                    <mxGeometry relative="1" as="geometry"/>
                </mxCell>
                <mxCell id="14" value="5. Response" style="text;html=1;resizable=0;points=[];align=center;verticalAlign=middle;labelBackgroundColor=#ffffff;" parent="13" vertex="1" connectable="0">
                    <mxGeometry x="0.0824" y="2" relative="1" as="geometry">
                        <mxPoint x="58" y="-2" as="offset"/>
                    </mxGeometry>
                </mxCell>
                <mxCell id="15" style="edgeStyle=orthogonalEdgeStyle;rounded=0;html=1;entryX=0.5;entryY=0;jettySize=auto;orthogonalLoop=1;" parent="1" source="17" target="2" edge="1">
                    <mxGeometry relative="1" as="geometry"/>
                </mxCell>
                <mxCell id="16" value="4. Serializing" style="text;html=1;resizable=0;points=[];align=center;verticalAlign=middle;labelBackgroundColor=#ffffff;" parent="15" vertex="1" connectable="0">
                    <mxGeometry x="-0.4615" y="-1" relative="1" as="geometry">
                        <mxPoint x="15" y="-1" as="offset"/>
                    </mxGeometry>
                </mxCell>
                <mxCell id="17" value="Data&lt;br&gt;" style="rounded=0;whiteSpace=wrap;html=1;" parent="1" vertex="1">
                    <mxGeometry x="260" y="200" width="120" height="60" as="geometry"/>
                </mxCell>
            </root>
        </mxGraphModel>
    </diagram>
    <diagram id="980cea9f-c2d1-b28c-84b2-f6ba478122d5" name="MVC+DTOs">
        <mxGraphModel dx="958" dy="784" grid="1" gridSize="10" guides="1" tooltips="1" connect="1" arrows="1" fold="1" page="1" pageScale="1" pageWidth="850" pageHeight="1100" math="0" shadow="0">
            <root>
                <mxCell id="0"/>
                <mxCell id="1" parent="0"/>
                <mxCell id="2" value="DTO&lt;br&gt;" style="rounded=0;whiteSpace=wrap;html=1;" parent="1" vertex="1">
                    <mxGeometry x="420" y="260" width="120" height="60" as="geometry"/>
                </mxCell>
                <mxCell id="3" style="edgeStyle=orthogonalEdgeStyle;rounded=0;html=1;jettySize=auto;orthogonalLoop=1;" parent="1" source="9" target="19" edge="1">
                    <mxGeometry relative="1" as="geometry"/>
                </mxCell>
                <mxCell id="4" value="4. Display" style="text;html=1;resizable=0;points=[];align=center;verticalAlign=middle;labelBackgroundColor=#ffffff;" parent="3" vertex="1" connectable="0">
                    <mxGeometry x="-0.1505" relative="1" as="geometry">
                        <mxPoint y="-4.5" as="offset"/>
                    </mxGeometry>
                </mxCell>
                <mxCell id="5" style="edgeStyle=orthogonalEdgeStyle;rounded=0;html=1;entryX=0.5;entryY=1;jettySize=auto;orthogonalLoop=1;" parent="1" source="9" target="2" edge="1">
                    <mxGeometry relative="1" as="geometry"/>
                </mxCell>
                <mxCell id="6" value="3. Creates" style="text;html=1;resizable=0;points=[];align=center;verticalAlign=middle;labelBackgroundColor=#ffffff;" parent="5" vertex="1" connectable="0">
                    <mxGeometry x="0.0769" y="-2" relative="1" as="geometry">
                        <mxPoint x="-10" y="-2" as="offset"/>
                    </mxGeometry>
                </mxCell>
                <mxCell id="7" style="edgeStyle=orthogonalEdgeStyle;rounded=0;html=1;jettySize=auto;orthogonalLoop=1;" parent="1" source="9" target="20" edge="1">
                    <mxGeometry relative="1" as="geometry"/>
                </mxCell>
                <mxCell id="8" value="2. Manipulates" style="text;html=1;resizable=0;points=[];align=center;verticalAlign=middle;labelBackgroundColor=#ffffff;" parent="7" vertex="1" connectable="0">
                    <mxGeometry x="-0.1882" y="29" relative="1" as="geometry">
                        <mxPoint x="-29" y="6" as="offset"/>
                    </mxGeometry>
                </mxCell>
                <mxCell id="9" value="Controller&lt;br&gt;(Resource)&lt;br&gt;" style="rounded=0;whiteSpace=wrap;html=1;" parent="1" vertex="1">
                    <mxGeometry x="260" y="320" width="120" height="60" as="geometry"/>
                </mxCell>
                <mxCell id="10" style="edgeStyle=orthogonalEdgeStyle;rounded=0;html=1;jettySize=auto;orthogonalLoop=1;" parent="1" source="14" target="9" edge="1">
                    <mxGeometry relative="1" as="geometry"/>
                </mxCell>
                <mxCell id="11" value="1. Request" style="text;html=1;resizable=0;points=[];align=center;verticalAlign=middle;labelBackgroundColor=#ffffff;" parent="10" vertex="1" connectable="0">
                    <mxGeometry x="-0.1333" y="-1" relative="1" as="geometry">
                        <mxPoint x="15" y="-1" as="offset"/>
                    </mxGeometry>
                </mxCell>
                <mxCell id="12" style="rounded=0;html=1;exitX=0.5;exitY=0;exitPerimeter=0;entryX=0;entryY=0.983;entryPerimeter=0;jettySize=auto;orthogonalLoop=1;dashed=1;" parent="1" source="14" target="19" edge="1">
                    <mxGeometry relative="1" as="geometry"/>
                </mxCell>
                <mxCell id="13" value="7. Consumes" style="text;html=1;resizable=0;points=[];align=center;verticalAlign=middle;labelBackgroundColor=#ffffff;" parent="12" vertex="1" connectable="0">
                    <mxGeometry x="-0.2646" y="-1" relative="1" as="geometry">
                        <mxPoint x="18.5" y="-12" as="offset"/>
                    </mxGeometry>
                </mxCell>
                <mxCell id="14" value="Client" style="shape=umlActor;verticalLabelPosition=bottom;labelBackgroundColor=#ffffff;verticalAlign=top;html=1;" parent="1" vertex="1">
                    <mxGeometry x="80" y="320" width="30" height="60" as="geometry"/>
                </mxCell>
                <mxCell id="15" style="edgeStyle=orthogonalEdgeStyle;rounded=0;html=1;entryX=0.5;entryY=0;entryPerimeter=0;jettySize=auto;orthogonalLoop=1;" parent="1" source="19" target="14" edge="1">
                    <mxGeometry relative="1" as="geometry"/>
                </mxCell>
                <mxCell id="16" value="6. Response" style="text;html=1;resizable=0;points=[];align=center;verticalAlign=middle;labelBackgroundColor=#ffffff;" parent="15" vertex="1" connectable="0">
                    <mxGeometry x="0.0824" y="2" relative="1" as="geometry">
                        <mxPoint x="58" y="-2" as="offset"/>
                    </mxGeometry>
                </mxCell>
                <mxCell id="17" style="edgeStyle=orthogonalEdgeStyle;rounded=0;html=1;entryX=0.5;entryY=0;jettySize=auto;orthogonalLoop=1;" parent="1" source="19" target="2" edge="1">
                    <mxGeometry relative="1" as="geometry"/>
                </mxCell>
                <mxCell id="18" value="5. Serializing" style="text;html=1;resizable=0;points=[];align=center;verticalAlign=middle;labelBackgroundColor=#ffffff;" parent="17" vertex="1" connectable="0">
                    <mxGeometry x="-0.4615" y="-1" relative="1" as="geometry">
                        <mxPoint x="15" y="-1" as="offset"/>
                    </mxGeometry>
                </mxCell>
                <mxCell id="19" value="Data&lt;br&gt;" style="rounded=0;whiteSpace=wrap;html=1;" parent="1" vertex="1">
                    <mxGeometry x="260" y="200" width="120" height="60" as="geometry"/>
                </mxCell>
                <mxCell id="20" value="Model&lt;br&gt;(Domain)&lt;br&gt;" style="rounded=0;whiteSpace=wrap;html=1;" parent="1" vertex="1">
                    <mxGeometry x="260" y="440" width="120" height="60" as="geometry"/>
                </mxCell>
            </root>
        </mxGraphModel>
    </diagram>
    <diagram id="jFdloxNuc3hZUF0NXjSb" name="Typed Client">
        <mxGraphModel dx="958" dy="784" grid="1" gridSize="10" guides="1" tooltips="1" connect="1" arrows="1" fold="1" page="1" pageScale="1" pageWidth="850" pageHeight="1100" math="0" shadow="0">
            <root>
                <mxCell id="0"/>
                <mxCell id="1" parent="0"/>
                <mxCell id="725d6768634ed1ba-4" style="edgeStyle=orthogonalEdgeStyle;rounded=0;html=1;jettySize=auto;orthogonalLoop=1;" parent="1" source="725d6768634ed1ba-1" target="725d6768634ed1ba-2" edge="1">
                    <mxGeometry relative="1" as="geometry"/>
                </mxCell>
                <mxCell id="725d6768634ed1ba-8" value="Uses" style="text;html=1;resizable=0;points=[];align=center;verticalAlign=middle;labelBackgroundColor=#ffffff;" parent="725d6768634ed1ba-4" vertex="1" connectable="0">
                    <mxGeometry x="-0.3833" y="2" relative="1" as="geometry">
                        <mxPoint x="15" y="2" as="offset"/>
                    </mxGeometry>
                </mxCell>
                <mxCell id="725d6768634ed1ba-1" value="My.Api" style="rounded=0;whiteSpace=wrap;html=1;" parent="1" vertex="1">
                    <mxGeometry x="160" y="60" width="120" height="60" as="geometry"/>
                </mxCell>
                <mxCell id="725d6768634ed1ba-2" value="My.Api.Contracts" style="rounded=0;whiteSpace=wrap;html=1;" parent="1" vertex="1">
                    <mxGeometry x="360" y="60" width="120" height="60" as="geometry"/>
                </mxCell>
                <mxCell id="725d6768634ed1ba-5" style="edgeStyle=orthogonalEdgeStyle;rounded=0;html=1;jettySize=auto;orthogonalLoop=1;" parent="1" source="725d6768634ed1ba-3" target="725d6768634ed1ba-2" edge="1">
                    <mxGeometry relative="1" as="geometry"/>
                </mxCell>
                <mxCell id="725d6768634ed1ba-9" value="Uses" style="text;html=1;resizable=0;points=[];align=center;verticalAlign=middle;labelBackgroundColor=#ffffff;" parent="725d6768634ed1ba-5" vertex="1" connectable="0">
                    <mxGeometry x="0.0583" relative="1" as="geometry">
                        <mxPoint x="2" as="offset"/>
                    </mxGeometry>
                </mxCell>
                <mxCell id="725d6768634ed1ba-6" style="edgeStyle=elbowEdgeStyle;rounded=0;html=1;jettySize=auto;orthogonalLoop=1;elbow=vertical;entryX=0.5;entryY=1;exitX=0.5;exitY=1;dashed=1;" parent="1" source="725d6768634ed1ba-3" target="725d6768634ed1ba-1" edge="1">
                    <mxGeometry relative="1" as="geometry">
                        <Array as="points">
                            <mxPoint x="420" y="180"/>
                        </Array>
                    </mxGeometry>
                </mxCell>
                <mxCell id="725d6768634ed1ba-7" value="Call over HTTP" style="text;html=1;resizable=0;points=[];align=center;verticalAlign=middle;labelBackgroundColor=#ffffff;spacing=2;labelBorderColor=#000000;" parent="725d6768634ed1ba-6" vertex="1" connectable="0">
                    <mxGeometry x="0.0513" y="4" relative="1" as="geometry">
                        <mxPoint x="18" y="-4" as="offset"/>
                    </mxGeometry>
                </mxCell>
                <mxCell id="725d6768634ed1ba-3" value="My.Client" style="rounded=0;whiteSpace=wrap;html=1;" parent="1" vertex="1">
                    <mxGeometry x="560" y="60" width="120" height="60" as="geometry"/>
                </mxCell>
                <mxCell id="725d6768634ed1ba-10" style="edgeStyle=orthogonalEdgeStyle;rounded=0;html=1;jettySize=auto;orthogonalLoop=1;" parent="1" source="725d6768634ed1ba-12" target="725d6768634ed1ba-13" edge="1">
                    <mxGeometry relative="1" as="geometry"/>
                </mxCell>
                <mxCell id="725d6768634ed1ba-11" value="Uses" style="text;html=1;resizable=0;points=[];align=center;verticalAlign=middle;labelBackgroundColor=#ffffff;" parent="725d6768634ed1ba-10" vertex="1" connectable="0">
                    <mxGeometry x="-0.3833" y="2" relative="1" as="geometry">
                        <mxPoint x="15" y="2" as="offset"/>
                    </mxGeometry>
                </mxCell>
                <mxCell id="725d6768634ed1ba-12" value="My.Api" style="rounded=0;whiteSpace=wrap;html=1;" parent="1" vertex="1">
                    <mxGeometry x="40" y="300" width="120" height="60" as="geometry"/>
                </mxCell>
                <mxCell id="725d6768634ed1ba-13" value="My.Api.Contracts" style="rounded=0;whiteSpace=wrap;html=1;" parent="1" vertex="1">
                    <mxGeometry x="240" y="300" width="120" height="60" as="geometry"/>
                </mxCell>
                <mxCell id="725d6768634ed1ba-14" style="edgeStyle=orthogonalEdgeStyle;rounded=0;html=1;jettySize=auto;orthogonalLoop=1;" parent="1" source="725d6768634ed1ba-18" target="725d6768634ed1ba-13" edge="1">
                    <mxGeometry relative="1" as="geometry"/>
                </mxCell>
                <mxCell id="725d6768634ed1ba-15" value="Uses" style="text;html=1;resizable=0;points=[];align=center;verticalAlign=middle;labelBackgroundColor=#ffffff;" parent="725d6768634ed1ba-14" vertex="1" connectable="0">
                    <mxGeometry x="0.0583" relative="1" as="geometry">
                        <mxPoint x="2" as="offset"/>
                    </mxGeometry>
                </mxCell>
                <mxCell id="725d6768634ed1ba-16" style="edgeStyle=elbowEdgeStyle;rounded=0;html=1;jettySize=auto;orthogonalLoop=1;elbow=vertical;entryX=0.5;entryY=1;exitX=0.5;exitY=1;dashed=1;" parent="1" source="725d6768634ed1ba-18" target="725d6768634ed1ba-12" edge="1">
                    <mxGeometry relative="1" as="geometry">
                        <Array as="points">
                            <mxPoint x="300" y="420"/>
                        </Array>
                    </mxGeometry>
                </mxCell>
                <mxCell id="725d6768634ed1ba-17" value="Call over HTTP" style="text;html=1;resizable=0;points=[];align=center;verticalAlign=middle;labelBackgroundColor=#ffffff;spacing=2;labelBorderColor=#000000;" parent="725d6768634ed1ba-16" vertex="1" connectable="0">
                    <mxGeometry x="0.0513" y="4" relative="1" as="geometry">
                        <mxPoint x="18" y="-4" as="offset"/>
                    </mxGeometry>
                </mxCell>
                <mxCell id="725d6768634ed1ba-18" value="My.Api.Client" style="rounded=0;whiteSpace=wrap;html=1;" parent="1" vertex="1">
                    <mxGeometry x="440" y="300" width="120" height="60" as="geometry"/>
                </mxCell>
                <mxCell id="725d6768634ed1ba-20" style="edgeStyle=elbowEdgeStyle;rounded=0;html=1;jettySize=auto;orthogonalLoop=1;exitX=0;exitY=0.5;" parent="1" source="725d6768634ed1ba-19" edge="1">
                    <mxGeometry relative="1" as="geometry">
                        <mxPoint x="560" y="330" as="targetPoint"/>
                    </mxGeometry>
                </mxCell>
                <mxCell id="725d6768634ed1ba-21" value="Uses" style="text;html=1;resizable=0;points=[];align=center;verticalAlign=middle;labelBackgroundColor=#ffffff;" parent="725d6768634ed1ba-20" vertex="1" connectable="0">
                    <mxGeometry x="0.1167" y="1" relative="1" as="geometry">
                        <mxPoint x="-1" y="-8" as="offset"/>
                    </mxGeometry>
                </mxCell>
                <mxCell id="725d6768634ed1ba-19" value="My.Client" style="rounded=0;whiteSpace=wrap;html=1;" parent="1" vertex="1">
                    <mxGeometry x="640" y="260" width="120" height="60" as="geometry"/>
                </mxCell>
                <mxCell id="725d6768634ed1ba-24" value="" style="edgeStyle=elbowEdgeStyle;rounded=0;html=1;jettySize=auto;orthogonalLoop=1;entryX=1;entryY=0.5;exitX=0;exitY=0.5;" parent="1" source="725d6768634ed1ba-22" target="725d6768634ed1ba-18" edge="1">
                    <mxGeometry relative="1" as="geometry">
                        <mxPoint x="700" y="530" as="targetPoint"/>
                    </mxGeometry>
                </mxCell>
                <mxCell id="725d6768634ed1ba-25" value="Uses" style="text;html=1;resizable=0;points=[];align=center;verticalAlign=middle;labelBackgroundColor=#ffffff;" parent="725d6768634ed1ba-24" vertex="1" connectable="0">
                    <mxGeometry x="-0.0667" relative="1" as="geometry">
                        <mxPoint as="offset"/>
                    </mxGeometry>
                </mxCell>
                <mxCell id="725d6768634ed1ba-22" value="Another App" style="rounded=0;whiteSpace=wrap;html=1;" parent="1" vertex="1">
                    <mxGeometry x="640" y="340" width="120" height="60" as="geometry"/>
                </mxCell>
            </root>
        </mxGraphModel>
    </diagram>
    <diagram id="FPYkylSLUc7cdMkFlZGH" name="DTO">
        <mxGraphModel dx="2150" dy="784" grid="1" gridSize="10" guides="1" tooltips="1" connect="1" arrows="1" fold="1" page="0" pageScale="1" pageWidth="850" pageHeight="1100" math="0" shadow="0">
            <root>
                <mxCell id="0"/>
                <mxCell id="1" parent="0"/>
                <mxCell id="w7NYnEJRKMs-tGhZHZ1b-1" value="REST API Endpoint" style="rounded=0;whiteSpace=wrap;html=1;horizontal=1;align=center;verticalAlign=top;" parent="1" vertex="1">
                    <mxGeometry x="-680" y="160" width="160" height="200" as="geometry"/>
                </mxCell>
                <mxCell id="w7NYnEJRKMs-tGhZHZ1b-2" style="edgeStyle=orthogonalEdgeStyle;rounded=0;orthogonalLoop=1;jettySize=auto;html=1;entryX=0.5;entryY=0;entryDx=0;entryDy=0;" parent="1" source="w7NYnEJRKMs-tGhZHZ1b-4" target="w7NYnEJRKMs-tGhZHZ1b-8" edge="1">
                    <mxGeometry relative="1" as="geometry"/>
                </mxCell>
                <mxCell id="w7NYnEJRKMs-tGhZHZ1b-3" style="edgeStyle=none;rounded=0;orthogonalLoop=1;jettySize=auto;html=1;startArrow=classic;startFill=1;endArrow=none;endFill=0;" parent="1" source="w7NYnEJRKMs-tGhZHZ1b-4" edge="1">
                    <mxGeometry relative="1" as="geometry">
                        <mxPoint x="-700" y="220" as="targetPoint"/>
                    </mxGeometry>
                </mxCell>
                <mxCell id="w7NYnEJRKMs-tGhZHZ1b-4" value="HTTP&lt;br&gt;(input)" style="rounded=0;whiteSpace=wrap;html=1;" parent="1" vertex="1">
                    <mxGeometry x="-660" y="190" width="120" height="60" as="geometry"/>
                </mxCell>
                <mxCell id="w7NYnEJRKMs-tGhZHZ1b-5" style="edgeStyle=none;rounded=0;orthogonalLoop=1;jettySize=auto;html=1;startArrow=none;startFill=0;endArrow=classic;endFill=1;" parent="1" source="w7NYnEJRKMs-tGhZHZ1b-6" edge="1">
                    <mxGeometry relative="1" as="geometry">
                        <mxPoint x="-700" y="320" as="targetPoint"/>
                    </mxGeometry>
                </mxCell>
                <mxCell id="w7NYnEJRKMs-tGhZHZ1b-6" value="HTTP&lt;br&gt;(output)" style="rounded=0;whiteSpace=wrap;html=1;" parent="1" vertex="1">
                    <mxGeometry x="-660" y="290" width="120" height="60" as="geometry"/>
                </mxCell>
                <mxCell id="w7NYnEJRKMs-tGhZHZ1b-7" style="edgeStyle=orthogonalEdgeStyle;rounded=0;orthogonalLoop=1;jettySize=auto;html=1;exitX=0.5;exitY=1;exitDx=0;exitDy=0;entryX=1;entryY=0.5;entryDx=0;entryDy=0;" parent="1" source="w7NYnEJRKMs-tGhZHZ1b-8" target="w7NYnEJRKMs-tGhZHZ1b-6" edge="1">
                    <mxGeometry relative="1" as="geometry"/>
                </mxCell>
                <mxCell id="w7NYnEJRKMs-tGhZHZ1b-8" value="Domain logic" style="rounded=0;whiteSpace=wrap;html=1;" parent="1" vertex="1">
                    <mxGeometry x="-500" y="240" width="120" height="60" as="geometry"/>
                </mxCell>
                <mxCell id="w7NYnEJRKMs-tGhZHZ1b-9" value="Figure 4.x" style="text;html=1;align=center;verticalAlign=middle;resizable=0;points=[];autosize=1;fontSize=12;fontColor=default;" parent="1" vertex="1">
                    <mxGeometry x="-640" y="395" width="80" height="30" as="geometry"/>
                </mxCell>
                <mxCell id="w7NYnEJRKMs-tGhZHZ1b-10" value="REST API Endpoint" style="rounded=0;whiteSpace=wrap;html=1;horizontal=1;align=center;verticalAlign=top;" parent="1" vertex="1">
                    <mxGeometry x="-280" y="160" width="160" height="200" as="geometry"/>
                </mxCell>
                <mxCell id="w7NYnEJRKMs-tGhZHZ1b-11" style="edgeStyle=orthogonalEdgeStyle;rounded=0;orthogonalLoop=1;jettySize=auto;html=1;entryX=0.5;entryY=0;entryDx=0;entryDy=0;" parent="1" source="w7NYnEJRKMs-tGhZHZ1b-13" target="w7NYnEJRKMs-tGhZHZ1b-17" edge="1">
                    <mxGeometry relative="1" as="geometry"/>
                </mxCell>
                <mxCell id="w7NYnEJRKMs-tGhZHZ1b-12" style="edgeStyle=none;rounded=0;orthogonalLoop=1;jettySize=auto;html=1;startArrow=classic;startFill=1;endArrow=none;endFill=0;" parent="1" source="w7NYnEJRKMs-tGhZHZ1b-13" edge="1">
                    <mxGeometry relative="1" as="geometry">
                        <mxPoint x="-300" y="220" as="targetPoint"/>
                    </mxGeometry>
                </mxCell>
                <mxCell id="w7NYnEJRKMs-tGhZHZ1b-13" value="Input DTO" style="rounded=0;whiteSpace=wrap;html=1;" parent="1" vertex="1">
                    <mxGeometry x="-260" y="190" width="120" height="60" as="geometry"/>
                </mxCell>
                <mxCell id="w7NYnEJRKMs-tGhZHZ1b-14" style="edgeStyle=none;rounded=0;orthogonalLoop=1;jettySize=auto;html=1;startArrow=none;startFill=0;endArrow=classic;endFill=1;" parent="1" source="w7NYnEJRKMs-tGhZHZ1b-15" edge="1">
                    <mxGeometry relative="1" as="geometry">
                        <mxPoint x="-300" y="320" as="targetPoint"/>
                    </mxGeometry>
                </mxCell>
                <mxCell id="w7NYnEJRKMs-tGhZHZ1b-15" value="Output DTO" style="rounded=0;whiteSpace=wrap;html=1;" parent="1" vertex="1">
                    <mxGeometry x="-260" y="290" width="120" height="60" as="geometry"/>
                </mxCell>
                <mxCell id="w7NYnEJRKMs-tGhZHZ1b-16" style="edgeStyle=orthogonalEdgeStyle;rounded=0;orthogonalLoop=1;jettySize=auto;html=1;exitX=0.5;exitY=1;exitDx=0;exitDy=0;entryX=1;entryY=0.5;entryDx=0;entryDy=0;" parent="1" source="w7NYnEJRKMs-tGhZHZ1b-17" target="w7NYnEJRKMs-tGhZHZ1b-15" edge="1">
                    <mxGeometry relative="1" as="geometry"/>
                </mxCell>
                <mxCell id="w7NYnEJRKMs-tGhZHZ1b-17" value="Domain logic" style="rounded=0;whiteSpace=wrap;html=1;" parent="1" vertex="1">
                    <mxGeometry x="-100" y="240" width="120" height="60" as="geometry"/>
                </mxCell>
                <mxCell id="w7NYnEJRKMs-tGhZHZ1b-18" value="Figure 4.x" style="text;html=1;align=center;verticalAlign=middle;resizable=0;points=[];autosize=1;fontSize=12;fontColor=default;" parent="1" vertex="1">
                    <mxGeometry x="-240" y="395" width="80" height="30" as="geometry"/>
                </mxCell>
                <mxCell id="w7NYnEJRKMs-tGhZHZ1b-29" value="Create the registration" style="shape=process;whiteSpace=wrap;html=1;backgroundOutline=1;labelBackgroundColor=none;fontColor=default;fillColor=default;" parent="1" vertex="1">
                    <mxGeometry x="-480" y="770" width="160" height="60" as="geometry"/>
                </mxCell>
                <mxCell id="w7NYnEJRKMs-tGhZHZ1b-31" value="REST API Endpoint" style="rounded=0;whiteSpace=wrap;html=1;horizontal=1;align=center;verticalAlign=top;" parent="1" vertex="1">
                    <mxGeometry x="-700" y="620" width="180" height="360" as="geometry"/>
                </mxCell>
                <mxCell id="w7NYnEJRKMs-tGhZHZ1b-32" style="edgeStyle=orthogonalEdgeStyle;rounded=0;orthogonalLoop=1;jettySize=auto;html=1;entryX=0.5;entryY=0;entryDx=0;entryDy=0;" parent="1" source="w7NYnEJRKMs-tGhZHZ1b-41" target="w7NYnEJRKMs-tGhZHZ1b-29" edge="1">
                    <mxGeometry relative="1" as="geometry">
                        <mxPoint x="-540" y="740" as="sourcePoint"/>
                        <mxPoint x="-440" y="760" as="targetPoint"/>
                    </mxGeometry>
                </mxCell>
                <mxCell id="w7NYnEJRKMs-tGhZHZ1b-33" style="edgeStyle=none;rounded=0;orthogonalLoop=1;jettySize=auto;html=1;startArrow=classic;startFill=1;endArrow=none;endFill=0;" parent="1" source="w7NYnEJRKMs-tGhZHZ1b-41" target="w7NYnEJRKMs-tGhZHZ1b-47" edge="1">
                    <mxGeometry relative="1" as="geometry">
                        <mxPoint x="-760" y="739.921052631579" as="targetPoint"/>
                        <mxPoint x="-680" y="739.5" as="sourcePoint"/>
                    </mxGeometry>
                </mxCell>
                <mxCell id="w7NYnEJRKMs-tGhZHZ1b-40" value="POST" style="edgeLabel;html=1;align=center;verticalAlign=middle;resizable=0;points=[];fontColor=default;" parent="w7NYnEJRKMs-tGhZHZ1b-33" vertex="1" connectable="0">
                    <mxGeometry x="0.475" y="1" relative="1" as="geometry">
                        <mxPoint x="9" y="-1" as="offset"/>
                    </mxGeometry>
                </mxCell>
                <mxCell id="w7NYnEJRKMs-tGhZHZ1b-35" style="edgeStyle=none;rounded=0;orthogonalLoop=1;jettySize=auto;html=1;startArrow=none;startFill=0;endArrow=classic;endFill=1;" parent="1" source="w7NYnEJRKMs-tGhZHZ1b-50" target="w7NYnEJRKMs-tGhZHZ1b-47" edge="1">
                    <mxGeometry relative="1" as="geometry">
                        <mxPoint x="-760" y="840" as="targetPoint"/>
                        <mxPoint x="-660" y="840" as="sourcePoint"/>
                        <Array as="points">
                            <mxPoint x="-785" y="885"/>
                        </Array>
                    </mxGeometry>
                </mxCell>
                <mxCell id="w7NYnEJRKMs-tGhZHZ1b-54" value="Response" style="edgeLabel;html=1;align=center;verticalAlign=middle;resizable=0;points=[];fontColor=default;" parent="w7NYnEJRKMs-tGhZHZ1b-35" vertex="1" connectable="0">
                    <mxGeometry x="-0.2351" relative="1" as="geometry">
                        <mxPoint x="25" as="offset"/>
                    </mxGeometry>
                </mxCell>
                <mxCell id="w7NYnEJRKMs-tGhZHZ1b-37" style="edgeStyle=orthogonalEdgeStyle;rounded=0;orthogonalLoop=1;jettySize=auto;html=1;exitX=0.5;exitY=1;exitDx=0;exitDy=0;" parent="1" source="w7NYnEJRKMs-tGhZHZ1b-29" target="w7NYnEJRKMs-tGhZHZ1b-50" edge="1">
                    <mxGeometry relative="1" as="geometry">
                        <mxPoint x="-440" y="820" as="sourcePoint"/>
                        <mxPoint x="-540" y="840" as="targetPoint"/>
                    </mxGeometry>
                </mxCell>
                <mxCell id="w7NYnEJRKMs-tGhZHZ1b-39" value="Figure 4.x" style="text;html=1;align=center;verticalAlign=middle;resizable=0;points=[];autosize=1;fontSize=12;fontColor=default;" parent="1" vertex="1">
                    <mxGeometry x="-640" y="1140" width="80" height="30" as="geometry"/>
                </mxCell>
                <mxCell id="w7NYnEJRKMs-tGhZHZ1b-41" value="Input DTO" style="swimlane;fontStyle=0;childLayout=stackLayout;horizontal=1;startSize=30;horizontalStack=0;resizeParent=1;resizeParentMax=0;resizeLast=0;collapsible=1;marginBottom=0;whiteSpace=wrap;html=1;fontColor=default;labelBackgroundColor=none;fillColor=default;swimlaneFillColor=default;" parent="1" vertex="1">
                    <mxGeometry x="-680" y="660" width="140" height="120" as="geometry"/>
                </mxCell>
                <mxCell id="w7NYnEJRKMs-tGhZHZ1b-42" value="Registrant: Person" style="text;strokeColor=none;fillColor=none;align=left;verticalAlign=middle;spacingLeft=4;spacingRight=4;overflow=hidden;points=[[0,0.5],[1,0.5]];portConstraint=eastwest;rotatable=0;whiteSpace=wrap;html=1;fontColor=default;labelBackgroundColor=none;" parent="w7NYnEJRKMs-tGhZHZ1b-41" vertex="1">
                    <mxGeometry y="30" width="140" height="30" as="geometry"/>
                </mxCell>
                <mxCell id="w7NYnEJRKMs-tGhZHZ1b-43" value="Activity: Event" style="text;strokeColor=none;fillColor=none;align=left;verticalAlign=middle;spacingLeft=4;spacingRight=4;overflow=hidden;points=[[0,0.5],[1,0.5]];portConstraint=eastwest;rotatable=0;whiteSpace=wrap;html=1;fontColor=default;labelBackgroundColor=none;" parent="w7NYnEJRKMs-tGhZHZ1b-41" vertex="1">
                    <mxGeometry y="60" width="140" height="30" as="geometry"/>
                </mxCell>
                <mxCell id="w7NYnEJRKMs-tGhZHZ1b-44" value="Payment: PaymentInfo" style="text;strokeColor=none;fillColor=none;align=left;verticalAlign=middle;spacingLeft=4;spacingRight=4;overflow=hidden;points=[[0,0.5],[1,0.5]];portConstraint=eastwest;rotatable=0;whiteSpace=wrap;html=1;fontColor=default;labelBackgroundColor=none;" parent="w7NYnEJRKMs-tGhZHZ1b-41" vertex="1">
                    <mxGeometry y="90" width="140" height="30" as="geometry"/>
                </mxCell>
                <mxCell id="w7NYnEJRKMs-tGhZHZ1b-49" style="edgeStyle=none;html=1;fontColor=default;" parent="1" source="w7NYnEJRKMs-tGhZHZ1b-46" target="w7NYnEJRKMs-tGhZHZ1b-47" edge="1">
                    <mxGeometry relative="1" as="geometry"/>
                </mxCell>
                <mxCell id="w7NYnEJRKMs-tGhZHZ1b-46" value="User" style="shape=umlActor;verticalLabelPosition=bottom;verticalAlign=top;html=1;outlineConnect=0;labelBackgroundColor=none;fontColor=default;fillColor=default;" parent="1" vertex="1">
                    <mxGeometry x="-880" y="690" width="30" height="60" as="geometry"/>
                </mxCell>
                <mxCell id="w7NYnEJRKMs-tGhZHZ1b-47" value="" style="sketch=0;pointerEvents=1;shadow=0;dashed=0;html=1;strokeColor=default;fillColor=default;aspect=fixed;labelPosition=center;verticalLabelPosition=bottom;verticalAlign=top;align=center;outlineConnect=0;shape=mxgraph.vvd.web_browser;labelBackgroundColor=none;fontColor=default;" parent="1" vertex="1">
                    <mxGeometry x="-810" y="702.25" width="50" height="35.5" as="geometry"/>
                </mxCell>
                <mxCell id="w7NYnEJRKMs-tGhZHZ1b-50" value="Output DTO" style="swimlane;fontStyle=0;childLayout=stackLayout;horizontal=1;startSize=30;horizontalStack=0;resizeParent=1;resizeParentMax=0;resizeLast=0;collapsible=1;marginBottom=0;whiteSpace=wrap;html=1;fontColor=default;labelBackgroundColor=none;fillColor=default;swimlaneFillColor=default;" parent="1" vertex="1">
                    <mxGeometry x="-680" y="810" width="140" height="150" as="geometry"/>
                </mxCell>
                <mxCell id="w7NYnEJRKMs-tGhZHZ1b-51" value="Status: Status" style="text;strokeColor=none;fillColor=none;align=left;verticalAlign=middle;spacingLeft=4;spacingRight=4;overflow=hidden;points=[[0,0.5],[1,0.5]];portConstraint=eastwest;rotatable=0;whiteSpace=wrap;html=1;fontColor=default;labelBackgroundColor=none;" parent="w7NYnEJRKMs-tGhZHZ1b-50" vertex="1">
                    <mxGeometry y="30" width="140" height="30" as="geometry"/>
                </mxCell>
                <mxCell id="w7NYnEJRKMs-tGhZHZ1b-81" value="NumberOfSeats: int" style="text;strokeColor=none;fillColor=none;align=left;verticalAlign=middle;spacingLeft=4;spacingRight=4;overflow=hidden;points=[[0,0.5],[1,0.5]];portConstraint=eastwest;rotatable=0;whiteSpace=wrap;html=1;fontColor=default;labelBackgroundColor=none;" parent="w7NYnEJRKMs-tGhZHZ1b-50" vertex="1">
                    <mxGeometry y="60" width="140" height="30" as="geometry"/>
                </mxCell>
                <mxCell id="w7NYnEJRKMs-tGhZHZ1b-82" value="ActivityId: int" style="text;strokeColor=none;fillColor=none;align=left;verticalAlign=middle;spacingLeft=4;spacingRight=4;overflow=hidden;points=[[0,0.5],[1,0.5]];portConstraint=eastwest;rotatable=0;whiteSpace=wrap;html=1;fontColor=default;labelBackgroundColor=none;" parent="w7NYnEJRKMs-tGhZHZ1b-50" vertex="1">
                    <mxGeometry y="90" width="140" height="30" as="geometry"/>
                </mxCell>
                <mxCell id="w7NYnEJRKMs-tGhZHZ1b-83" value="ActivityDate: DateTime" style="text;strokeColor=none;fillColor=none;align=left;verticalAlign=middle;spacingLeft=4;spacingRight=4;overflow=hidden;points=[[0,0.5],[1,0.5]];portConstraint=eastwest;rotatable=0;whiteSpace=wrap;html=1;fontColor=default;labelBackgroundColor=none;" parent="w7NYnEJRKMs-tGhZHZ1b-50" vertex="1">
                    <mxGeometry y="120" width="140" height="30" as="geometry"/>
                </mxCell>
                <mxCell id="w7NYnEJRKMs-tGhZHZ1b-55" value="Fetch the registration" style="shape=process;whiteSpace=wrap;html=1;backgroundOutline=1;labelBackgroundColor=none;fontColor=default;fillColor=default;" parent="1" vertex="1">
                    <mxGeometry x="160" y="760" width="160" height="60" as="geometry"/>
                </mxCell>
                <mxCell id="w7NYnEJRKMs-tGhZHZ1b-56" value="REST API Endpoint" style="rounded=0;whiteSpace=wrap;html=1;horizontal=1;align=center;verticalAlign=top;" parent="1" vertex="1">
                    <mxGeometry x="-60" y="650" width="180" height="270" as="geometry"/>
                </mxCell>
                <mxCell id="w7NYnEJRKMs-tGhZHZ1b-57" style="edgeStyle=orthogonalEdgeStyle;rounded=0;orthogonalLoop=1;jettySize=auto;html=1;entryX=0.5;entryY=0;entryDx=0;entryDy=0;" parent="1" source="w7NYnEJRKMs-tGhZHZ1b-77" target="w7NYnEJRKMs-tGhZHZ1b-55" edge="1">
                    <mxGeometry relative="1" as="geometry">
                        <mxPoint x="100" y="720" as="sourcePoint"/>
                        <mxPoint x="200" y="760" as="targetPoint"/>
                    </mxGeometry>
                </mxCell>
                <mxCell id="w7NYnEJRKMs-tGhZHZ1b-58" style="edgeStyle=none;rounded=0;orthogonalLoop=1;jettySize=auto;html=1;startArrow=classic;startFill=1;endArrow=none;endFill=0;" parent="1" source="w7NYnEJRKMs-tGhZHZ1b-77" target="w7NYnEJRKMs-tGhZHZ1b-70" edge="1">
                    <mxGeometry relative="1" as="geometry">
                        <mxPoint x="-120" y="739.921052631579" as="targetPoint"/>
                        <mxPoint x="-40" y="720" as="sourcePoint"/>
                    </mxGeometry>
                </mxCell>
                <mxCell id="w7NYnEJRKMs-tGhZHZ1b-59" value="GET" style="edgeLabel;html=1;align=center;verticalAlign=middle;resizable=0;points=[];fontColor=default;" parent="w7NYnEJRKMs-tGhZHZ1b-58" vertex="1" connectable="0">
                    <mxGeometry x="0.475" y="1" relative="1" as="geometry">
                        <mxPoint x="9" y="-1" as="offset"/>
                    </mxGeometry>
                </mxCell>
                <mxCell id="w7NYnEJRKMs-tGhZHZ1b-60" style="edgeStyle=none;rounded=0;orthogonalLoop=1;jettySize=auto;html=1;startArrow=none;startFill=0;endArrow=classic;endFill=1;" parent="1" source="w7NYnEJRKMs-tGhZHZ1b-73" target="w7NYnEJRKMs-tGhZHZ1b-70" edge="1">
                    <mxGeometry relative="1" as="geometry">
                        <mxPoint x="-120" y="840" as="targetPoint"/>
                        <mxPoint x="-40" y="840" as="sourcePoint"/>
                        <Array as="points">
                            <mxPoint x="-145" y="850"/>
                        </Array>
                    </mxGeometry>
                </mxCell>
                <mxCell id="w7NYnEJRKMs-tGhZHZ1b-61" value="Response" style="edgeLabel;html=1;align=center;verticalAlign=middle;resizable=0;points=[];fontColor=default;" parent="w7NYnEJRKMs-tGhZHZ1b-60" vertex="1" connectable="0">
                    <mxGeometry x="-0.2351" relative="1" as="geometry">
                        <mxPoint x="25" as="offset"/>
                    </mxGeometry>
                </mxCell>
                <mxCell id="w7NYnEJRKMs-tGhZHZ1b-62" style="edgeStyle=orthogonalEdgeStyle;rounded=0;orthogonalLoop=1;jettySize=auto;html=1;exitX=0.5;exitY=1;exitDx=0;exitDy=0;" parent="1" source="w7NYnEJRKMs-tGhZHZ1b-55" target="w7NYnEJRKMs-tGhZHZ1b-73" edge="1">
                    <mxGeometry relative="1" as="geometry">
                        <mxPoint x="200" y="820" as="sourcePoint"/>
                        <mxPoint x="100" y="840" as="targetPoint"/>
                    </mxGeometry>
                </mxCell>
                <mxCell id="w7NYnEJRKMs-tGhZHZ1b-63" value="Figure 4.x" style="text;html=1;align=center;verticalAlign=middle;resizable=0;points=[];autosize=1;fontSize=12;fontColor=default;" parent="1" vertex="1">
                    <mxGeometry y="960" width="80" height="30" as="geometry"/>
                </mxCell>
                <mxCell id="w7NYnEJRKMs-tGhZHZ1b-68" style="edgeStyle=none;html=1;fontColor=default;" parent="1" source="w7NYnEJRKMs-tGhZHZ1b-69" target="w7NYnEJRKMs-tGhZHZ1b-70" edge="1">
                    <mxGeometry relative="1" as="geometry"/>
                </mxCell>
                <mxCell id="w7NYnEJRKMs-tGhZHZ1b-69" value="User" style="shape=umlActor;verticalLabelPosition=bottom;verticalAlign=top;html=1;outlineConnect=0;labelBackgroundColor=none;fontColor=default;fillColor=default;" parent="1" vertex="1">
                    <mxGeometry x="-240" y="690" width="30" height="60" as="geometry"/>
                </mxCell>
                <mxCell id="w7NYnEJRKMs-tGhZHZ1b-70" value="" style="sketch=0;pointerEvents=1;shadow=0;dashed=0;html=1;strokeColor=default;fillColor=default;aspect=fixed;labelPosition=center;verticalLabelPosition=bottom;verticalAlign=top;align=center;outlineConnect=0;shape=mxgraph.vvd.web_browser;labelBackgroundColor=none;fontColor=default;gradientColor=none;" parent="1" vertex="1">
                    <mxGeometry x="-170" y="702.25" width="50" height="35.5" as="geometry"/>
                </mxCell>
                <mxCell id="w7NYnEJRKMs-tGhZHZ1b-73" value="Output DTO" style="swimlane;fontStyle=0;childLayout=stackLayout;horizontal=1;startSize=30;horizontalStack=0;resizeParent=1;resizeParentMax=0;resizeLast=0;collapsible=1;marginBottom=0;whiteSpace=wrap;html=1;fontColor=default;labelBackgroundColor=none;fillColor=default;swimlaneFillColor=default;" parent="1" vertex="1">
                    <mxGeometry x="-40" y="790" width="140" height="120" as="geometry"/>
                </mxCell>
                <mxCell id="w7NYnEJRKMs-tGhZHZ1b-74" value="Registrant: Person" style="text;strokeColor=none;fillColor=none;align=left;verticalAlign=middle;spacingLeft=4;spacingRight=4;overflow=hidden;points=[[0,0.5],[1,0.5]];portConstraint=eastwest;rotatable=0;whiteSpace=wrap;html=1;fontColor=default;labelBackgroundColor=none;" parent="w7NYnEJRKMs-tGhZHZ1b-73" vertex="1">
                    <mxGeometry y="30" width="140" height="30" as="geometry"/>
                </mxCell>
                <mxCell id="w7NYnEJRKMs-tGhZHZ1b-75" value="Activity: Event" style="text;strokeColor=none;fillColor=none;align=left;verticalAlign=middle;spacingLeft=4;spacingRight=4;overflow=hidden;points=[[0,0.5],[1,0.5]];portConstraint=eastwest;rotatable=0;whiteSpace=wrap;html=1;fontColor=default;labelBackgroundColor=none;" parent="w7NYnEJRKMs-tGhZHZ1b-73" vertex="1">
                    <mxGeometry y="60" width="140" height="30" as="geometry"/>
                </mxCell>
                <mxCell id="w7NYnEJRKMs-tGhZHZ1b-84" value="NumberOfSeats: int" style="text;strokeColor=none;fillColor=none;align=left;verticalAlign=middle;spacingLeft=4;spacingRight=4;overflow=hidden;points=[[0,0.5],[1,0.5]];portConstraint=eastwest;rotatable=0;whiteSpace=wrap;html=1;fontColor=default;labelBackgroundColor=none;" parent="w7NYnEJRKMs-tGhZHZ1b-73" vertex="1">
                    <mxGeometry y="90" width="140" height="30" as="geometry"/>
                </mxCell>
                <mxCell id="w7NYnEJRKMs-tGhZHZ1b-77" value="Input DTO" style="swimlane;fontStyle=0;childLayout=stackLayout;horizontal=1;startSize=30;horizontalStack=0;resizeParent=1;resizeParentMax=0;resizeLast=0;collapsible=1;marginBottom=0;whiteSpace=wrap;html=1;fontColor=default;labelBackgroundColor=none;fillColor=default;swimlaneFillColor=default;" parent="1" vertex="1">
                    <mxGeometry x="-40" y="690" width="140" height="60" as="geometry"/>
                </mxCell>
                <mxCell id="w7NYnEJRKMs-tGhZHZ1b-78" value="RegistrationId: int" style="text;strokeColor=none;fillColor=none;align=left;verticalAlign=middle;spacingLeft=4;spacingRight=4;overflow=hidden;points=[[0,0.5],[1,0.5]];portConstraint=eastwest;rotatable=0;whiteSpace=wrap;html=1;fontColor=default;labelBackgroundColor=none;" parent="w7NYnEJRKMs-tGhZHZ1b-77" vertex="1">
                    <mxGeometry y="30" width="140" height="30" as="geometry"/>
                </mxCell>
                <mxCell id="w7NYnEJRKMs-tGhZHZ1b-79" value="600 px MAX width" style="rounded=0;whiteSpace=wrap;html=1;sketch=0;fontSize=12;align=center;fontStyle=1" parent="1" vertex="1">
                    <mxGeometry x="-260" y="560" width="600" height="40" as="geometry"/>
                </mxCell>
                <mxCell id="w7NYnEJRKMs-tGhZHZ1b-80" value="" style="endArrow=none;html=1;fontColor=default;" parent="1" edge="1">
                    <mxGeometry width="50" height="50" relative="1" as="geometry">
                        <mxPoint x="-1040" y="40" as="sourcePoint"/>
                        <mxPoint x="-620" y="40" as="targetPoint"/>
                    </mxGeometry>
                </mxCell>
                <mxCell id="xrnIvOpSEvhgDoHWUitf-1" value="REST API Endpoint" style="rounded=0;whiteSpace=wrap;html=1;horizontal=1;align=center;verticalAlign=top;" vertex="1" parent="1">
                    <mxGeometry x="770" y="160" width="160" height="200" as="geometry"/>
                </mxCell>
                <mxCell id="xrnIvOpSEvhgDoHWUitf-2" style="edgeStyle=orthogonalEdgeStyle;rounded=0;orthogonalLoop=1;jettySize=auto;html=1;entryX=0.5;entryY=0;entryDx=0;entryDy=0;" edge="1" parent="1" source="xrnIvOpSEvhgDoHWUitf-4" target="xrnIvOpSEvhgDoHWUitf-8">
                    <mxGeometry relative="1" as="geometry"/>
                </mxCell>
                <mxCell id="xrnIvOpSEvhgDoHWUitf-4" value="2. Deserialize&lt;br&gt;Input DTO" style="rounded=0;whiteSpace=wrap;html=1;" vertex="1" parent="1">
                    <mxGeometry x="790" y="190" width="120" height="60" as="geometry"/>
                </mxCell>
                <mxCell id="xrnIvOpSEvhgDoHWUitf-5" style="edgeStyle=entityRelationEdgeStyle;orthogonalLoop=1;jettySize=auto;html=1;startArrow=none;startFill=0;endArrow=classic;endFill=1;curved=1;" edge="1" parent="1" source="xrnIvOpSEvhgDoHWUitf-6" target="xrnIvOpSEvhgDoHWUitf-11">
                    <mxGeometry relative="1" as="geometry">
                        <mxPoint x="750" y="320" as="targetPoint"/>
                    </mxGeometry>
                </mxCell>
                <mxCell id="xrnIvOpSEvhgDoHWUitf-16" value="5. Response" style="edgeLabel;html=1;align=center;verticalAlign=middle;resizable=0;points=[];" vertex="1" connectable="0" parent="xrnIvOpSEvhgDoHWUitf-5">
                    <mxGeometry x="0.1596" y="-1" relative="1" as="geometry">
                        <mxPoint x="25" y="9" as="offset"/>
                    </mxGeometry>
                </mxCell>
                <mxCell id="xrnIvOpSEvhgDoHWUitf-6" value="4. Serialize&lt;br&gt;Output DTO" style="rounded=0;whiteSpace=wrap;html=1;" vertex="1" parent="1">
                    <mxGeometry x="790" y="290" width="120" height="60" as="geometry"/>
                </mxCell>
                <mxCell id="xrnIvOpSEvhgDoHWUitf-7" style="edgeStyle=orthogonalEdgeStyle;rounded=0;orthogonalLoop=1;jettySize=auto;html=1;exitX=0.5;exitY=1;exitDx=0;exitDy=0;entryX=1;entryY=0.5;entryDx=0;entryDy=0;" edge="1" parent="1" source="xrnIvOpSEvhgDoHWUitf-8" target="xrnIvOpSEvhgDoHWUitf-6">
                    <mxGeometry relative="1" as="geometry"/>
                </mxCell>
                <mxCell id="xrnIvOpSEvhgDoHWUitf-8" value="3. Execute &lt;br&gt;Domain logic" style="rounded=0;whiteSpace=wrap;html=1;" vertex="1" parent="1">
                    <mxGeometry x="950" y="240" width="120" height="60" as="geometry"/>
                </mxCell>
                <mxCell id="xrnIvOpSEvhgDoHWUitf-9" value="Figure 5.x" style="text;html=1;align=center;verticalAlign=middle;resizable=0;points=[];autosize=1;fontSize=12;fontColor=default;" vertex="1" parent="1">
                    <mxGeometry x="700" y="385" width="80" height="30" as="geometry"/>
                </mxCell>
                <mxCell id="xrnIvOpSEvhgDoHWUitf-10" value="600 px MAX width" style="rounded=0;whiteSpace=wrap;html=1;sketch=0;fontSize=12;align=center;fontStyle=1" vertex="1" parent="1">
                    <mxGeometry x="560" y="440" width="600" height="40" as="geometry"/>
                </mxCell>
                <mxCell id="xrnIvOpSEvhgDoHWUitf-13" style="edgeStyle=entityRelationEdgeStyle;html=1;entryX=0;entryY=0.5;entryDx=0;entryDy=0;curved=1;" edge="1" parent="1" source="xrnIvOpSEvhgDoHWUitf-11" target="xrnIvOpSEvhgDoHWUitf-4">
                    <mxGeometry relative="1" as="geometry">
                        <mxPoint x="730" y="260" as="targetPoint"/>
                    </mxGeometry>
                </mxCell>
                <mxCell id="xrnIvOpSEvhgDoHWUitf-14" value="1. Request" style="edgeLabel;html=1;align=center;verticalAlign=middle;resizable=0;points=[];" vertex="1" connectable="0" parent="xrnIvOpSEvhgDoHWUitf-13">
                    <mxGeometry x="0.4277" y="1" relative="1" as="geometry">
                        <mxPoint x="-32" y="9" as="offset"/>
                    </mxGeometry>
                </mxCell>
                <mxCell id="xrnIvOpSEvhgDoHWUitf-11" value="Client" style="shape=umlActor;verticalLabelPosition=bottom;verticalAlign=top;html=1;outlineConnect=0;" vertex="1" parent="1">
                    <mxGeometry x="560" y="230" width="30" height="60" as="geometry"/>
                </mxCell>
                <mxCell id="xrnIvOpSEvhgDoHWUitf-17" value="" style="endArrow=none;html=1;curved=1;" edge="1" parent="1">
                    <mxGeometry width="50" height="50" relative="1" as="geometry">
                        <mxPoint x="690" y="40" as="sourcePoint"/>
                        <mxPoint x="1120" y="40" as="targetPoint"/>
                    </mxGeometry>
                </mxCell>
            </root>
        </mxGraphModel>
    </diagram>
</mxfile>